<svg width="491" height="113" fill="none"><g clip-path="url(#prefix__clip0)"><path d="M292.25 66.5c8.422 0 15.25-6.828 15.25-15.25S300.672 36 292.25 36 277 42.828 277 51.25s6.828 15.25 15.25 15.25z" fill="#F03D36"/><path d="M287.812 58.538c1.185 0 2.145-.425 2.145-.953V46.603l9.531-2.606v11.027c0 .527-.959.953-2.145.953M284.991 55.688c0 1.576 1.26 2.85 2.821 2.85M287.812 52.867a2.819 2.819 0 00-2.821 2.821M289.957 54.16c0-.715-.96-1.29-2.145-1.29M294.523 53.127c0 1.575 1.259 2.85 2.82 2.85M297.343 50.306a2.818 2.818 0 00-2.82 2.82M299.488 51.599c0-.715-.959-1.29-2.145-1.29M289.957 49.731l9.531-2.606" stroke="#fff" stroke-width=".7" stroke-miterlimit="10"/></g><path d="M167.49 92c-.255.279-.498.512-.729.698-.23.187-.461.336-.692.45a2.86 2.86 0 01-.721.227c-.245.044-.51.067-.795.067-.431 0-.814-.074-1.148-.221a2.321 2.321 0 01-.831-.618 2.868 2.868 0 01-.508-.965 4.326 4.326 0 01-.169-1.243c0-.604.093-1.183.279-1.737a4.968 4.968 0 01.795-1.472 3.955 3.955 0 011.207-1.023 3.178 3.178 0 011.538-.383c.496 0 .91.089 1.244.265.333.172.625.425.876.758l-.413.493a.431.431 0 01-.117.096.259.259 0 01-.14.037.318.318 0 01-.206-.088 1.823 1.823 0 00-.258-.206 1.652 1.652 0 00-.404-.207 1.647 1.647 0 00-.611-.095c-.339 0-.658.093-.957.28a2.646 2.646 0 00-.787.75 3.92 3.92 0 00-.538 1.133 5.012 5.012 0 00-.191 1.406c0 .304.034.581.103.832.069.245.172.456.309.633.137.171.304.306.5.404.202.094.435.14.7.14.328 0 .603-.049.824-.147.226-.098.414-.204.567-.316a4.97 4.97 0 00.382-.324c.108-.098.214-.147.317-.147.093 0 .176.041.25.125l.324.397zm3.868.418c.358 0 .682-.098.972-.294.294-.196.544-.456.75-.78.211-.329.373-.706.486-1.133.113-.427.169-.874.169-1.34 0-.687-.137-1.202-.412-1.545-.27-.348-.66-.523-1.17-.523-.363 0-.692.099-.986.295a2.54 2.54 0 00-.743.772c-.206.324-.366.7-.479 1.126a5.213 5.213 0 00-.169 1.34c0 .687.135 1.207.405 1.56.27.348.662.522 1.177.522zm-.125 1.023c-.407 0-.78-.068-1.118-.206a2.492 2.492 0 01-.876-.61 2.786 2.786 0 01-.574-.972 3.849 3.849 0 01-.206-1.31c0-.628.098-1.219.294-1.773a4.664 4.664 0 01.81-1.45 3.858 3.858 0 011.207-.986c.466-.24.966-.361 1.501-.361.407 0 .78.071 1.118.213.339.138.631.339.876.604.246.265.437.589.574.971.138.383.206.817.206 1.303a5.26 5.26 0 01-.294 1.766 4.76 4.76 0 01-.81 1.457c-.338.417-.74.749-1.206.994-.467.24-.967.36-1.502.36zm4.873-.103l.898-7.462h.647c.299 0 .449.147.449.442l-.103 1.324c.368-.613.77-1.077 1.207-1.39.442-.32.903-.479 1.384-.479.505 0 .878.174 1.118.523.241.343.361.836.361 1.479.368-.682.782-1.185 1.244-1.509.466-.329.956-.493 1.471-.493.638 0 1.09.245 1.355.736.264.49.343 1.185.235 2.083l-.559 4.746h-1.296l.567-4.746c.069-.584.049-1.018-.059-1.303-.103-.285-.338-.427-.706-.427a1.38 1.38 0 00-.633.162 2.226 2.226 0 00-.604.464c-.196.2-.38.454-.552.758-.166.3-.316.645-.448 1.037v.008l-.479 4.047h-1.295l.559-4.746c.074-.584.064-1.018-.029-1.303-.093-.285-.324-.427-.692-.427-.235 0-.464.06-.684.177-.216.118-.422.29-.619.515-.191.22-.37.493-.537.817a7.65 7.65 0 00-.456 1.082l-.464 3.885h-1.28zm13.056-1.633c.187.26.41.446.67.559.26.108.525.162.795.162.255 0 .496-.054.721-.162a2.3 2.3 0 00.618-.434c.187-.187.354-.403.501-.648.147-.25.27-.515.368-.795a5.37 5.37 0 00.235-.875 5.13 5.13 0 00.081-.898c0-.584-.105-1.028-.316-1.332-.211-.304-.508-.457-.891-.457-.235 0-.473.074-.714.221-.24.142-.473.344-.699.604-.22.26-.429.569-.625.927-.192.358-.358.75-.501 1.177l-.243 1.95zm.398-3.798c.186-.324.39-.615.611-.876.22-.265.454-.49.699-.677.245-.186.498-.328.758-.426.265-.103.535-.155.809-.155.638 0 1.131.23 1.48.692.353.461.529 1.136.529 2.024a6.053 6.053 0 01-.485 2.362 5.564 5.564 0 01-.56 1.023 4.343 4.343 0 01-.728.824c-.265.23-.555.412-.869.545a2.51 2.51 0 01-.986.199c-.368 0-.701-.072-1.001-.214a2.223 2.223 0 01-.765-.618l-.397 3.253h-1.273l1.214-9.987h.647c.295 0 .442.147.442.442l-.125 1.59zm8.821 4.511c.358 0 .682-.098.971-.294a2.59 2.59 0 00.751-.78c.211-.329.373-.706.486-1.133.112-.427.169-.874.169-1.34 0-.687-.138-1.202-.412-1.545-.27-.348-.66-.523-1.17-.523-.364 0-.692.099-.987.295a2.552 2.552 0 00-.743.772c-.206.324-.365.7-.478 1.126-.113.427-.17.874-.17 1.34 0 .687.135 1.207.405 1.56.27.348.663.522 1.178.522zm-.125 1.023c-.408 0-.78-.068-1.119-.206a2.501 2.501 0 01-.876-.61 2.817 2.817 0 01-.574-.972 3.874 3.874 0 01-.206-1.31c0-.628.098-1.219.294-1.773a4.704 4.704 0 01.81-1.45 3.87 3.87 0 011.207-.986c.466-.24.966-.361 1.501-.361.407 0 .78.071 1.119.213.338.138.63.339.876.604.245.265.436.589.574.971.137.383.206.817.206 1.303 0 .623-.098 1.212-.295 1.766a4.779 4.779 0 01-.809 1.457 3.86 3.86 0 01-1.207.994c-.466.24-.967.36-1.501.36zm9.678-6.365a.534.534 0 01-.118.132.272.272 0 01-.147.037.427.427 0 01-.228-.081 3.393 3.393 0 00-.295-.177 1.981 1.981 0 00-.419-.184 1.823 1.823 0 00-.604-.088c-.22 0-.422.032-.603.096a1.432 1.432 0 00-.471.25 1.2 1.2 0 00-.302.383 1.032 1.032 0 00-.103.456c0 .23.076.414.228.552.152.137.344.257.574.36.231.099.479.194.744.288.265.093.512.21.743.353.231.142.422.323.574.544.152.221.228.508.228.861 0 .344-.069.672-.206.986a2.426 2.426 0 01-.581.832 2.861 2.861 0 01-.913.567 3.166 3.166 0 01-1.192.213c-.476 0-.898-.083-1.266-.25a2.67 2.67 0 01-.89-.655l.323-.5a.594.594 0 01.14-.148.36.36 0 01.442.051c.078.07.176.148.294.236.118.084.265.16.442.228.181.07.409.104.684.104.241 0 .456-.037.648-.11a1.49 1.49 0 00.493-.295 1.2 1.2 0 00.309-.427c.073-.167.11-.343.11-.53 0-.25-.076-.449-.228-.596a1.858 1.858 0 00-.574-.368 8.075 8.075 0 00-.743-.272 4.048 4.048 0 01-.743-.332 1.863 1.863 0 01-.575-.53c-.152-.215-.228-.502-.228-.86a2.309 2.309 0 01.729-1.686 2.6 2.6 0 01.854-.537 3.003 3.003 0 011.14-.206c.447 0 .839.076 1.178.228.343.147.638.349.883.604l-.331.47zm4.878-.354c-.309 0-.594.064-.854.192-.26.127-.49.304-.692.53-.201.22-.373.483-.515.787-.142.3-.252.623-.331.972.756-.094 1.362-.2 1.818-.317.456-.123.807-.253 1.052-.39.245-.142.407-.294.486-.456.078-.162.118-.332.118-.508 0-.088-.02-.18-.059-.272a.695.695 0 00-.192-.265.926.926 0 00-.331-.192 1.37 1.37 0 00-.5-.08zm2.075 5.24c-.25.26-.495.483-.736.67-.24.181-.485.334-.736.456a3.042 3.042 0 01-.78.265c-.27.06-.562.089-.876.089-.426 0-.809-.072-1.148-.214a2.407 2.407 0 01-.861-.603 2.768 2.768 0 01-.544-.957 3.837 3.837 0 01-.192-1.251c0-.383.04-.763.118-1.14.084-.384.201-.747.353-1.09.157-.343.346-.662.567-.957.226-.294.481-.547.765-.758a3.61 3.61 0 01.95-.508 3.34 3.34 0 011.118-.184c.378 0 .704.054.979.162.275.108.501.246.677.412.177.167.307.351.39.552.089.201.133.393.133.574 0 .324-.066.623-.199.898-.132.27-.375.515-.728.736-.354.216-.839.405-1.458.567-.618.162-1.413.292-2.384.39 0 .054-.003.108-.007.162v.154c0 .658.142 1.16.426 1.509.29.344.724.515 1.303.515.236 0 .444-.024.626-.073a2.33 2.33 0 00.875-.412l.302-.236c.093-.074.179-.135.258-.184a.44.44 0 01.235-.074c.093 0 .177.042.25.126l.324.404zm8.417-5.24a1.91 1.91 0 00-.853.192c-.26.127-.491.304-.692.53-.201.22-.373.483-.515.787-.142.3-.253.623-.331.972.755-.094 1.361-.2 1.817-.317.457-.123.808-.253 1.053-.39.245-.142.407-.294.486-.456.078-.162.117-.332.117-.508a.686.686 0 00-.059-.272.703.703 0 00-.191-.265.935.935 0 00-.331-.192 1.372 1.372 0 00-.501-.08zm2.076 5.24c-.25.26-.496.483-.736.67a4.563 4.563 0 01-.736.456 3.042 3.042 0 01-.78.265c-.27.06-.562.089-.876.089a2.94 2.94 0 01-1.148-.214 2.39 2.39 0 01-.861-.603 2.77 2.77 0 01-.545-.957 3.864 3.864 0 01-.191-1.251c0-.383.039-.763.118-1.14.083-.384.201-.747.353-1.09.157-.343.346-.662.567-.957.225-.294.48-.547.765-.758a3.62 3.62 0 01.949-.508 3.35 3.35 0 011.119-.184c.378 0 .704.054.979.162.275.108.5.246.677.412.177.167.307.351.39.552.088.201.132.393.132.574 0 .324-.066.623-.198.898-.133.27-.376.515-.729.736-.353.216-.839.405-1.457.567-.618.162-1.413.292-2.384.39 0 .054-.003.108-.008.162v.154c0 .658.142 1.16.427 1.509.289.344.724.515 1.303.515.235 0 .444-.024.625-.073a2.342 2.342 0 00.876-.412l.302-.236c.093-.074.179-.135.257-.184a.443.443 0 01.236-.074c.093 0 .176.042.25.126l.324.404zm7.871-6.079l-3.739 7.456h-1.089l-1.928-7.456h1.059c.099 0 .177.027.236.081a.395.395 0 01.118.192l1.104 4.798c.029.187.054.37.073.552.02.181.037.365.052.552.054-.182.113-.363.176-.545a8.59 8.59 0 01.221-.559l2.304-4.798a.507.507 0 01.162-.192.369.369 0 01.235-.08h1.016zm3.823.84a1.91 1.91 0 00-.853.19c-.26.128-.491.305-.692.53-.201.221-.373.484-.515.788-.142.3-.253.623-.331.972.755-.094 1.361-.2 1.817-.317.457-.123.808-.253 1.053-.39.245-.142.407-.294.486-.456.078-.162.117-.332.117-.508a.686.686 0 00-.059-.272.703.703 0 00-.191-.265.935.935 0 00-.331-.192 1.372 1.372 0 00-.501-.08zm2.076 5.24c-.25.26-.496.483-.736.669a4.563 4.563 0 01-.736.456 3.042 3.042 0 01-.78.265c-.27.06-.562.089-.876.089a2.94 2.94 0 01-1.148-.214 2.39 2.39 0 01-.861-.603 2.77 2.77 0 01-.545-.957 3.864 3.864 0 01-.191-1.251c0-.383.039-.763.118-1.14.083-.384.201-.747.353-1.09.157-.343.346-.662.567-.957.225-.294.48-.547.765-.758a3.62 3.62 0 01.949-.508 3.35 3.35 0 011.119-.184c.378 0 .704.054.979.162.275.108.5.246.677.412.177.167.307.351.39.552.088.201.132.393.132.574 0 .324-.066.623-.198.898-.133.27-.376.515-.729.736-.353.216-.839.405-1.457.567-.618.162-1.413.292-2.384.39 0 .054-.003.108-.008.162v.154c0 .658.142 1.16.427 1.509.289.344.724.515 1.303.515.235 0 .444-.024.625-.073a2.342 2.342 0 00.876-.412l.302-.236c.093-.074.179-.135.257-.184a.443.443 0 01.236-.074c.093 0 .176.042.25.126l.324.404zm3.054-4.196c.397-.657.846-1.153 1.347-1.486.5-.339 1.015-.508 1.545-.508.314 0 .589.064.824.191.241.123.435.305.582.545.152.24.255.537.309.89.054.349.054.746 0 1.193l-.559 4.746h-1.303l.559-4.746c.069-.59.032-1.023-.11-1.303-.142-.285-.405-.427-.788-.427-.235 0-.475.064-.721.192-.24.127-.473.309-.699.544a4.57 4.57 0 00-.633.854 6.004 6.004 0 00-.493 1.104l-.427 3.782h-1.31l.898-7.462h.648c.294 0 .441.147.441.442l-.11 1.45zm6.417 4.166v-.11c0-.05.002-.118.007-.207l.037-.346c.019-.142.044-.328.073-.559l.457-3.731h-.832a.228.228 0 01-.169-.066c-.039-.05-.054-.123-.044-.221l.059-.523 1.148-.154.559-2.304a.398.398 0 01.11-.176.286.286 0 01.199-.074h.684l-.316 2.569h1.958l-.111.949h-1.965l-.449 3.665-.059.486-.036.294c-.005.074-.01.125-.015.155v.066c0 .25.059.436.177.56a.634.634 0 00.471.176.98.98 0 00.338-.052c.098-.039.184-.08.258-.125.073-.044.135-.083.184-.118.049-.039.09-.059.125-.059.044 0 .076.01.095.03.025.02.047.051.067.096l.279.625c-.24.211-.515.378-.824.5a2.532 2.532 0 01-.92.177c-.476 0-.851-.13-1.126-.39-.27-.26-.41-.638-.419-1.133zm9.449-4.857a.555.555 0 01-.118.132.274.274 0 01-.147.037.433.433 0 01-.229-.081 3.216 3.216 0 00-.294-.177 2.004 2.004 0 00-.419-.184 1.823 1.823 0 00-.604-.088c-.221 0-.422.032-.603.096a1.432 1.432 0 00-.471.25 1.186 1.186 0 00-.302.383 1.032 1.032 0 00-.103.456c0 .23.076.414.228.552.152.137.343.257.574.36.231.099.478.194.743.288.265.093.513.21.744.353.23.142.422.323.574.544.152.221.228.508.228.861 0 .344-.069.672-.206.986a2.442 2.442 0 01-.582.832c-.25.236-.554.424-.912.567a3.166 3.166 0 01-1.192.213c-.476 0-.898-.083-1.266-.25a2.685 2.685 0 01-.891-.655l.324-.5a.576.576 0 01.14-.148.358.358 0 01.441.051c.079.07.177.148.295.236.118.084.265.16.441.228.182.07.41.104.685.104.24 0 .456-.037.647-.11.197-.074.361-.173.494-.295a1.2 1.2 0 00.309-.427c.073-.167.11-.343.11-.53 0-.25-.076-.449-.228-.596a1.87 1.87 0 00-.574-.368 8.297 8.297 0 00-.743-.272 4.088 4.088 0 01-.744-.332 1.86 1.86 0 01-.574-.53c-.152-.215-.228-.502-.228-.86 0-.314.061-.616.184-.906.128-.294.309-.554.545-.78.235-.225.52-.404.853-.537a3.012 3.012 0 011.141-.206c.447 0 .839.076 1.178.228.343.147.637.349.883.604l-.331.47zm8.327-.354c-.309 0-.594.064-.854.192-.26.127-.491.304-.692.53-.201.22-.373.483-.515.787-.142.3-.253.623-.331.972.755-.094 1.361-.2 1.818-.317.456-.123.807-.253 1.052-.39.245-.142.407-.294.486-.456.078-.162.117-.332.117-.508a.702.702 0 00-.058-.272.706.706 0 00-.192-.265.935.935 0 00-.331-.192 1.37 1.37 0 00-.5-.08zm2.075 5.24c-.25.26-.496.483-.736.67a4.52 4.52 0 01-.736.456 3.042 3.042 0 01-.78.265c-.27.06-.562.089-.876.089a2.94 2.94 0 01-1.148-.214 2.407 2.407 0 01-.861-.603 2.768 2.768 0 01-.544-.957 3.837 3.837 0 01-.192-1.251c0-.383.039-.763.118-1.14.083-.384.201-.747.353-1.09.157-.343.346-.662.567-.957.226-.294.481-.547.765-.758a3.61 3.61 0 01.95-.508 3.34 3.34 0 011.118-.184c.378 0 .704.054.979.162.275.108.5.246.677.412.177.167.307.351.39.552.088.201.133.393.133.574 0 .324-.067.623-.199.898-.133.27-.375.515-.729.736-.353.216-.839.405-1.457.567-.618.162-1.413.292-2.384.39 0 .054-.003.108-.008.162v.154c0 .658.143 1.16.427 1.509.29.344.724.515 1.303.515.235 0 .444-.024.625-.073.187-.05.351-.108.493-.177a2.3 2.3 0 00.383-.236l.302-.235c.093-.074.179-.135.257-.184a.443.443 0 01.236-.074c.093 0 .177.042.25.126l.324.404zm3.593-4.99l-.743 6.124-.346 1.523a.846.846 0 01-.243.405c-.103.098-.248.147-.434.147h-.508l.986-8.176-.736-.096a.517.517 0 01-.213-.11c-.049-.05-.069-.126-.059-.228l.066-.53h1.06l.088-.722c.054-.427.16-.804.317-1.133.162-.334.363-.613.603-.839.246-.23.523-.405.832-.523a2.869 2.869 0 011.016-.176c.299 0 .576.049.831.147l-.125.677c-.02.098-.086.147-.199.147h-.427c-.211 0-.407.032-.588.096a1.188 1.188 0 00-.471.294 1.769 1.769 0 00-.354.538c-.093.22-.159.49-.198.81l-.081.684h1.862l-.125.942h-1.811zm4.715 0l-.743 6.124-.346 1.523a.846.846 0 01-.243.405c-.103.098-.248.147-.434.147h-.508l.986-8.176-.736-.096a.517.517 0 01-.213-.11c-.049-.05-.069-.126-.059-.228l.066-.53h1.06l.088-.722c.054-.427.16-.804.317-1.133.162-.334.363-.613.603-.839.246-.23.523-.405.832-.523a2.867 2.867 0 011.015-.176c.3 0 .577.049.832.147l-.125.677c-.02.098-.086.147-.199.147h-.427c-.211 0-.407.032-.588.096a1.188 1.188 0 00-.471.294 1.75 1.75 0 00-.354.538c-.093.22-.159.49-.198.81l-.081.684h1.862l-.125.942h-1.811zm4.912 5.447c.358 0 .681-.099.971-.295.294-.196.544-.456.75-.78.211-.329.373-.706.486-1.133.113-.427.169-.874.169-1.34 0-.687-.137-1.202-.412-1.545-.27-.348-.66-.523-1.17-.523-.363 0-.692.099-.986.295a2.54 2.54 0 00-.743.772c-.206.324-.366.7-.479 1.126a5.213 5.213 0 00-.169 1.34c0 .687.135 1.207.405 1.56.27.348.662.522 1.177.522h.001zm-.126 1.023c-.407 0-.78-.07-1.118-.207a2.492 2.492 0 01-.876-.61 2.786 2.786 0 01-.574-.972 3.849 3.849 0 01-.206-1.31c0-.628.098-1.219.294-1.773a4.664 4.664 0 01.81-1.45 3.858 3.858 0 011.207-.986c.466-.24.966-.361 1.501-.361.407 0 .78.071 1.118.213.339.138.631.339.876.604.246.265.437.589.574.971.138.383.206.817.206 1.303a5.26 5.26 0 01-.294 1.766 4.76 4.76 0 01-.81 1.457c-.338.417-.74.749-1.207.994-.466.24-.966.36-1.501.36zm6.742-5.483a6.32 6.32 0 01.633-1.082c.23-.31.471-.55.721-.721.25-.177.508-.282.773-.317.265-.039.535 0 .809.118l-.235 1.258c-.638-.255-1.202-.161-1.693.28-.486.442-.88 1.239-1.185 2.392l-.412 3.451h-1.28l.898-7.462h.647c.299 0 .449.147.449.442l-.125 1.64zm3.75 3.974v-.11c0-.05.003-.118.008-.207l.036-.346c.02-.142.044-.328.074-.559l.456-3.731h-.831a.23.23 0 01-.17-.066c-.039-.05-.054-.123-.044-.221l.059-.523 1.148-.154.559-2.304a.409.409 0 01.111-.176.284.284 0 01.199-.074h.684l-.317 2.569h1.958l-.11.949h-1.965l-.449 3.665-.059.486-.037.294c-.005.074-.01.125-.015.155v.066c0 .25.059.436.177.56a.637.637 0 00.471.176.985.985 0 00.339-.052c.098-.039.184-.08.257-.125.074-.044.135-.083.184-.118.049-.039.091-.059.125-.059.044 0 .076.01.096.03a.25.25 0 01.066.096l.28.625a2.818 2.818 0 01-.824.5 2.536 2.536 0 01-.92.177c-.476 0-.852-.13-1.126-.39-.27-.26-.41-.638-.42-1.133zm4.68 1.405l1.317-10.84h1.288l-1.317 10.84h-1.288zm7.06-6.616c-.309 0-.594.064-.854.192-.26.127-.491.304-.692.53-.201.22-.373.483-.515.787-.142.3-.253.623-.331.972.755-.094 1.361-.2 1.818-.317.456-.123.807-.253 1.052-.39.245-.142.407-.294.486-.456.078-.162.117-.332.117-.508a.702.702 0 00-.058-.272.706.706 0 00-.192-.265.935.935 0 00-.331-.192 1.37 1.37 0 00-.5-.08zm2.075 5.24c-.25.26-.496.483-.736.67a4.52 4.52 0 01-.736.456 3.042 3.042 0 01-.78.265c-.27.06-.562.089-.876.089a2.94 2.94 0 01-1.148-.214 2.407 2.407 0 01-.861-.603 2.768 2.768 0 01-.544-.957 3.837 3.837 0 01-.192-1.251c0-.383.039-.763.118-1.14.083-.384.201-.747.353-1.09.157-.343.346-.662.567-.957.226-.294.481-.547.765-.758a3.61 3.61 0 01.95-.508 3.34 3.34 0 011.118-.184c.378 0 .704.054.979.162.275.108.5.246.677.412.177.167.307.351.39.552.088.201.133.393.133.574 0 .324-.067.623-.199.898-.133.27-.375.515-.729.736-.353.216-.839.405-1.457.567-.618.162-1.413.292-2.384.39 0 .054-.003.108-.008.162v.154c0 .658.143 1.16.427 1.509.29.344.724.515 1.303.515.235 0 .444-.024.625-.073.187-.05.351-.108.493-.177a2.3 2.3 0 00.383-.236l.302-.235c.093-.074.179-.135.257-.184a.443.443 0 01.236-.074c.093 0 .177.042.25.126l.324.404zm5.983-4.886a.515.515 0 01-.118.132.272.272 0 01-.147.037.43.43 0 01-.228-.081 3.36 3.36 0 00-.294-.177 1.991 1.991 0 00-.42-.184 1.82 1.82 0 00-.603-.088c-.221 0-.422.032-.604.096a1.452 1.452 0 00-.471.25 1.214 1.214 0 00-.302.383 1.046 1.046 0 00-.103.456c0 .23.077.414.229.552.152.137.343.257.574.36.23.099.478.194.743.288.265.093.513.21.743.353.231.142.422.323.574.544.152.221.228.508.228.861 0 .344-.068.672-.206.986a2.426 2.426 0 01-.581.832 2.84 2.84 0 01-.913.567c-.353.142-.75.213-1.192.213-.476 0-.898-.083-1.266-.25a2.67 2.67 0 01-.89-.655l.324-.5a.56.56 0 01.14-.148.358.358 0 01.441.051c.079.07.177.148.294.236.118.084.265.16.442.228.182.07.41.104.684.104.241 0 .457-.037.648-.11a1.48 1.48 0 00.493-.295 1.293 1.293 0 00.42-.957c0-.25-.076-.449-.229-.596a1.858 1.858 0 00-.574-.368 8.075 8.075 0 00-.743-.272 4.048 4.048 0 01-.743-.332 1.849 1.849 0 01-.574-.53c-.152-.215-.228-.502-.228-.86 0-.314.061-.616.184-.906.127-.294.309-.554.544-.78a2.61 2.61 0 01.854-.537 3.009 3.009 0 011.141-.206c.446 0 .839.076 1.177.228.344.147.638.349.883.604l-.331.47zm5.894 0a.534.534 0 01-.118.132.272.272 0 01-.147.037.427.427 0 01-.228-.081 3.393 3.393 0 00-.295-.177 1.981 1.981 0 00-.419-.184 1.823 1.823 0 00-.604-.088c-.22 0-.422.032-.603.096a1.432 1.432 0 00-.471.25 1.2 1.2 0 00-.302.383 1.032 1.032 0 00-.103.456c0 .23.076.414.228.552.152.137.344.257.574.36.231.099.479.194.744.288.265.093.512.21.743.353.23.142.422.323.574.544.152.221.228.508.228.861 0 .344-.069.672-.206.986a2.426 2.426 0 01-.581.832 2.861 2.861 0 01-.913.567 3.166 3.166 0 01-1.192.213c-.476 0-.898-.083-1.266-.25a2.67 2.67 0 01-.89-.655l.323-.5a.576.576 0 01.14-.148.36.36 0 01.442.051c.078.07.176.148.294.236.118.084.265.16.442.228.181.07.409.104.684.104.24 0 .456-.037.648-.11a1.49 1.49 0 00.493-.295 1.2 1.2 0 00.309-.427c.073-.167.11-.343.11-.53 0-.25-.076-.449-.228-.596a1.858 1.858 0 00-.574-.368 8.184 8.184 0 00-.743-.272 4.088 4.088 0 01-.744-.332 1.871 1.871 0 01-.574-.53c-.152-.215-.228-.502-.228-.86a2.309 2.309 0 01.729-1.686 2.6 2.6 0 01.854-.537 3.003 3.003 0 011.14-.206c.447 0 .839.076 1.178.228.343.147.638.349.883.604l-.331.47zm1.124 6.263l1.317-10.84h1.288l-1.317 10.84h-1.288zm10.136-7.456l-5.034 9.678a.598.598 0 01-.192.228.442.442 0 01-.264.074h-.965l1.619-2.966-1.935-7.014h1.082c.108 0 .186.027.235.081a.464.464 0 01.111.192l1.199 4.695c.025.103.044.206.059.31.015.102.027.205.037.308l.132-.309a7.08 7.08 0 01.14-.316l2.355-4.703a.452.452 0 01.162-.184.396.396 0 01.221-.074h1.038zM101.49 41.248a5.38 5.38 0 00-2.386.546 6.592 6.592 0 00-2.04 1.495c-.594.632-1.12 1.398-1.58 2.299-.46.9-.834 1.906-1.121 3.017 2.126-.307 3.84-.632 5.144-.977 1.322-.364 2.337-.747 3.046-1.15.728-.42 1.207-.871 1.437-1.35.249-.479.373-.996.373-1.552 0-.268-.057-.536-.172-.804a2.02 2.02 0 00-.517-.748 2.424 2.424 0 00-.891-.546c-.364-.153-.795-.23-1.293-.23zm-7.76 12.444c0 4.387 1.85 6.58 5.547 6.58 1.226 0 2.222-.152 2.988-.46.786-.325 1.457-.67 2.012-1.034.556-.383 1.064-.728 1.523-1.034a2.846 2.846 0 011.638-.489c.269 0 .518.067.747.202.25.114.47.277.662.488l2.011 2.414a30.503 30.503 0 01-3.017 2.672 17.928 17.928 0 01-3.046 1.84 15.195 15.195 0 01-3.305 1.063c-1.15.23-2.414.345-3.793.345-1.744 0-3.334-.297-4.771-.89a10.838 10.838 0 01-3.707-2.501c-1.016-1.092-1.81-2.395-2.386-3.909-.555-1.532-.833-3.237-.833-5.114 0-1.572.172-3.104.517-4.599a20.002 20.002 0 011.495-4.253 18.234 18.234 0 012.356-3.678 15.249 15.249 0 013.19-2.903 14.975 14.975 0 013.88-1.926c1.418-.46 2.922-.689 4.512-.689 1.551 0 2.921.23 4.109.69 1.207.44 2.213 1.025 3.018 1.753.804.709 1.408 1.504 1.81 2.385.421.881.632 1.762.632 2.644 0 1.321-.268 2.538-.804 3.65-.537 1.11-1.476 2.107-2.817 2.988-1.341.862-3.161 1.61-5.46 2.242-2.299.613-5.202 1.092-8.708 1.437v.086zm52.649-17.473l-14.513 29.63h-6.667l-7.329-29.63h6.524c.556 0 .987.134 1.293.403.326.268.537.613.633 1.034l2.557 14.656c.172 1.035.307 2.05.403 3.047.114.977.2 1.963.258 2.96a83.284 83.284 0 012.213-6.007l6.207-14.656c.192-.421.48-.766.863-1.034a2.2 2.2 0 011.293-.403h6.265zm18.212 5.03a5.38 5.38 0 00-2.386.545 6.594 6.594 0 00-2.04 1.495c-.594.632-1.121 1.398-1.58 2.299-.46.9-.834 1.906-1.121 3.017 2.126-.307 3.841-.632 5.144-.977 1.322-.364 2.337-.747 3.046-1.15.728-.42 1.207-.871 1.437-1.35.249-.479.374-.996.374-1.552 0-.268-.058-.536-.173-.804a2.02 2.02 0 00-.517-.748 2.424 2.424 0 00-.891-.546c-.364-.153-.795-.23-1.293-.23zm-7.759 12.443c0 4.387 1.848 6.58 5.546 6.58 1.226 0 2.222-.152 2.989-.46.785-.325 1.456-.67 2.011-1.034.556-.383 1.064-.728 1.524-1.034a2.84 2.84 0 011.637-.489c.269 0 .518.067.748.202.249.114.469.277.661.488l2.011 2.414a30.503 30.503 0 01-3.017 2.672 17.928 17.928 0 01-3.046 1.84 15.195 15.195 0 01-3.305 1.063c-1.15.23-2.414.345-3.793.345-1.744 0-3.334-.297-4.771-.89a10.826 10.826 0 01-3.707-2.501c-1.016-1.092-1.811-2.395-2.386-3.909-.555-1.532-.833-3.237-.833-5.114 0-1.572.172-3.104.517-4.599a19.96 19.96 0 011.495-4.253 18.217 18.217 0 012.357-3.678 15.22 15.22 0 013.189-2.903 14.978 14.978 0 013.88-1.926c1.418-.46 2.922-.689 4.512-.689 1.551 0 2.921.23 4.109.69 1.207.44 2.213 1.025 3.017 1.753.805.709 1.409 1.504 1.811 2.385.421.881.632 1.762.632 2.644 0 1.321-.268 2.538-.804 3.65-.537 1.11-1.475 2.107-2.816 2.988-1.341.862-3.162 1.61-5.461 2.242-2.299.613-5.202 1.092-8.707 1.437v.086zm34.495-11.84c1.476-2.07 3.085-3.602 4.828-4.598 1.763-.996 3.592-1.495 5.489-1.495 1.227 0 2.338.25 3.334.747a6.437 6.437 0 012.471 2.185c.671.958 1.14 2.136 1.408 3.534.269 1.399.288 2.999.058 4.8l-2.241 18.823h-7.904l2.213-18.823c.23-1.782.144-3.037-.258-3.765-.403-.747-1.112-1.12-2.127-1.12-.728 0-1.475.22-2.242.66-.766.422-1.503 1.025-2.212 1.81-.709.786-1.361 1.734-1.954 2.846a17.353 17.353 0 00-1.437 3.707l-1.638 14.685h-7.932l3.563-29.658h4.052c.824 0 1.466.202 1.926.604.459.402.689 1.044.689 1.926l-.086 3.132zm27.388 17.789v-.46c0-.192.009-.46.028-.805.039-.364.087-.833.145-1.408.076-.594.172-1.36.287-2.3l1.58-12.759h-2.586c-.383 0-.699-.134-.948-.402-.23-.268-.307-.67-.23-1.207l.373-3.104 4.483-.862 2.443-7.673c.268-.862.853-1.293 1.753-1.293h4.253l-1.121 9.024h6.926l-.661 5.517h-6.926l-1.522 12.33-.23 1.867c-.058.46-.106.814-.144 1.063-.019.25-.029.422-.029.518v.171c0 .67.154 1.207.46 1.61.307.383.767.575 1.379.575.345 0 .642-.038.891-.115.249-.096.46-.192.632-.287.192-.115.364-.211.518-.288a.906.906 0 01.488-.144c.249 0 .431.058.546.173.115.096.23.268.345.517l1.725 3.793a12.221 12.221 0 01-3.651 1.955c-1.321.44-2.653.66-3.994.66-2.184 0-3.918-.584-5.201-1.752-1.265-1.188-1.935-2.826-2.012-4.915zm33.711-18.94c1.399-1.685 2.894-2.93 4.483-3.734 1.61-.805 3.258-1.208 4.943-1.208 1.246 0 2.367.25 3.363.747a6.383 6.383 0 012.5 2.185c.671.958 1.14 2.136 1.408 3.534.269 1.399.288 2.999.058 4.8l-2.242 18.823h-7.903l2.213-18.823c.23-1.782.144-3.047-.258-3.794-.403-.766-1.131-1.15-2.184-1.15-.671 0-1.37.192-2.098.575-.709.383-1.408.939-2.098 1.667-.67.71-1.293 1.571-1.868 2.586-.575.997-1.063 2.118-1.466 3.363l-1.896 15.576h-7.933L246.65 23h7.931l-2.155 17.702zm89.785-4.482l-14.513 29.63h-6.667l-7.328-29.63h6.523c.556 0 .987.134 1.294.403.325.268.536.613.631 1.034l2.558 14.656c.173 1.035.307 2.05.403 3.047.115.977.201 1.963.258 2.96a82.81 82.81 0 012.213-6.007l6.208-14.656c.191-.421.479-.766.862-1.034a2.2 2.2 0 011.293-.403h6.265zm18.212 5.03c-.843 0-1.638.181-2.386.545a6.594 6.594 0 00-2.04 1.495c-.594.632-1.12 1.398-1.58 2.299-.46.9-.833 1.906-1.121 3.017 2.127-.307 3.841-.632 5.144-.977 1.322-.364 2.338-.747 3.047-1.15.727-.42 1.206-.871 1.436-1.35.249-.479.374-.996.374-1.552 0-.268-.057-.536-.172-.804a2.034 2.034 0 00-.518-.748 2.424 2.424 0 00-.891-.546c-.364-.153-.795-.23-1.293-.23zm-7.759 12.443c0 4.387 1.849 6.58 5.546 6.58 1.227 0 2.223-.152 2.989-.46.785-.325 1.456-.67 2.012-1.034.556-.383 1.063-.728 1.523-1.034a2.842 2.842 0 011.637-.489c.269 0 .518.067.748.202.249.114.47.277.661.488l2.012 2.414a30.621 30.621 0 01-3.018 2.672 17.89 17.89 0 01-3.046 1.84 15.195 15.195 0 01-3.305 1.063c-1.149.23-2.414.345-3.794.345-1.743 0-3.333-.297-4.77-.89a10.826 10.826 0 01-3.707-2.501c-1.016-1.092-1.811-2.395-2.386-3.909-.555-1.532-.832-3.237-.832-5.114 0-1.572.172-3.104.516-4.599a20.07 20.07 0 011.495-4.253 18.257 18.257 0 012.356-3.678 15.23 15.23 0 013.191-2.903 14.956 14.956 0 013.879-1.926c1.418-.46 2.922-.689 4.512-.689 1.552 0 2.921.23 4.109.69 1.207.44 2.213 1.025 3.017 1.753.805.709 1.409 1.504 1.811 2.385.422.881.632 1.762.632 2.644 0 1.321-.268 2.538-.804 3.65-.536 1.11-1.475 2.107-2.817 2.988-1.341.862-3.161 1.61-5.46 2.242-2.299.613-5.201 1.092-8.707 1.437v.086zm34.496-11.84c1.475-2.07 3.084-3.602 4.827-4.598 1.763-.996 3.593-1.495 5.489-1.495 1.227 0 2.338.25 3.334.747a6.446 6.446 0 012.472 2.185c.67.958 1.14 2.136 1.408 3.534.268 1.399.287 2.999.057 4.8l-2.242 18.823h-7.902l2.213-18.823c.23-1.782.144-3.037-.258-3.765-.403-.747-1.112-1.12-2.127-1.12-.728 0-1.475.22-2.242.66-.766.422-1.504 1.025-2.212 1.81-.709.786-1.361 1.734-1.955 2.846a17.353 17.353 0 00-1.437 3.707l-1.637 14.685h-7.934l3.563-29.658h4.053c.824 0 1.466.202 1.926.604.459.402.689 1.044.689 1.926l-.085 3.132z" fill="#000"/><defs><clipPath><path fill="#fff" transform="translate(277 36)" d="M0 0h30.5v30.5H0z"/></clipPath></defs></svg>
