<svg viewBox="0 0 1024 1024"><style>.prefix__st1{fill:none;stroke:#fff;stroke-width:18;stroke-miterlimit:10}</style><circle cx="512" cy="512" r="512" fill="#f03d36"/><path class="prefix__st1" d="M363 756.7c39.8 0 72-14.3 72-32V356l320-87.5v370.2c0 17.7-32.2 32-72 32"/><path class="prefix__st1" d="M268.3 661c0 52.9 42.3 95.7 94.7 95.7"/><path class="prefix__st1" d="M363 566.3c-52.3 0-94.7 42.3-94.7 94.7"/><path class="prefix__st1" d="M435 609.7c0-24-32.2-43.3-72-43.3"/><path class="prefix__st1" d="M588.3 575c0 52.9 42.3 95.7 94.7 95.7"/><path class="prefix__st1" d="M683 480.3c-52.3 0-94.7 42.3-94.7 94.7"/><path class="prefix__st1" d="M755 523.7c0-24-32.2-43.3-72-43.3"/><path class="prefix__st1" d="M435 461l320-87.5"/></svg>
